<svg height="50px" viewBox="-150 0 512 512" width="50px" xmlns="http://www.w3.org/2000/svg"><path d="m17.65625 308.964844v-220.6875c0-48.757813 39.519531-88.277344 88.273438-88.277344 48.757812 0 88.277343 39.519531 88.277343 88.277344v220.6875zm0 0" fill="#ebba16"/><path d="m52.964844 300.136719v-211.859375c0-29.210938 23.765625-52.96875 52.964844-52.96875 29.210937 0 52.96875 23.757812 52.96875 52.96875v211.859375zm0 0" fill="#ed8a19"/><path d="m105.929688 308.964844c-4.871094 0-8.828126-3.953125-8.828126-8.828125v-26.480469c0-4.875 3.957032-8.828125 8.828126-8.828125 4.875 0 8.828124 3.953125 8.828124 8.828125v26.480469c0 4.875-3.953124 8.828125-8.828124 8.828125zm0 0" fill="#ffe088"/><path d="m0 300.136719c0 44.140625 35.308594 52.964843 35.308594 88.277343 0 9.746094 7.910156 17.65625 17.65625 17.65625h105.933594c9.742187 0 17.652343-7.910156 17.652343-17.65625 0-35.3125 35.3125-44.136718 35.3125-88.277343zm0 0" fill="#e7eced"/><path d="m126.050781 512h-40.238281c-14.113281 0-26.421875-9.605469-29.84375-23.304688l-3.003906-20.832031h105.933594l-3.003907 20.832031c-3.425781 13.699219-15.730469 23.304688-29.84375 23.304688zm0 0" fill="#afb6bb"/><path d="m158.898438 441.378906h-105.933594c-9.753906 0-17.65625-7.898437-17.65625-17.65625 0-9.753906 7.902344-17.652344 17.65625-17.652344h105.933594c9.753906 0 17.652343 7.898438 17.652343 17.652344 0 9.757813-7.898437 17.65625-17.652343 17.65625zm0 0" fill="#afb6bb"/><path d="m158.898438 476.691406h-105.933594c-9.753906 0-17.65625-7.902344-17.65625-17.65625s7.902344-17.65625 17.65625-17.65625h105.933594c9.753906 0 17.652343 7.902344 17.652343 17.65625s-7.898437 17.65625-17.652343 17.65625zm0 0" fill="#e7eced"/><path d="m105.929688 247.171875c4.875 0 8.828124-3.953125 8.828124-8.828125v-202.238281c-2.878906-.484375-5.816406-.796875-8.828124-.796875-3.007813 0-5.949219.3125-8.828126.796875v202.238281c0 4.875 3.957032 8.828125 8.828126 8.828125zm0 0" fill="#ffe088"/></svg>